<svg xmlns="http://www.w3.org/2000/svg" fill="none" viewBox="0 0 216 216" aria-hidden="true">
  <path
    fill="url(#epicproductengineer-dark-gradient)"
    d="M202.753 55.43c5.16 5.16 31.56 70.07-10.32 119.89-41.815 49.742-98.872 39.532-99.05 39.5 26.601-82.18 58.96-117.31 58.96-117.31-.79 1.59-2.379 73.05-2.379 73.05l-14.691-22.631c-15.88 40.69-12.11 54.981-12.11 54.981s35.53-3.97 60.74-35.93c36.32-47.84 12.7-95.881 12.7-95.881l6.15-15.68v.01Zm-29.18 48.02-13.3-34.14c-.121.114-51.044 47.953-79.4 143.119-.107-.028-20.273-5.383-32.75-14.489 0 0 5.89-25.5 19.41-49.78-24.29 13.52-49.78 19.41-49.78 19.41-9.11-12.472-14.466-32.661-14.49-32.75 95.28-28.39 143.121-79.4 143.121-79.4l-34.141-13.3 92.3-30.97-30.97 92.3ZM40.393 23.27c49.82-41.88 114.73-15.48 119.89-10.32l-15.68 6.149c-.083-.041-48.081-23.598-95.88 12.7-31.96 25.21-35.93 60.74-35.93 60.74s14.29 3.77 54.98-12.11l-22.63-14.69c.11-.002 71.457-1.59 73.05-2.38-.091.084-35.236 32.385-117.31 58.951 0 0-10.31-57.16 39.51-99.04Z"
  />
  <defs>
    <linearGradient
      id="epicproductengineer-dark-gradient"
      x1="204.993"
      x2="28.993"
      y1="9.99"
      y2="183.989"
      gradientUnits="userSpaceOnUse"
    >
      <stop stop-color="#ffa101" />
      <stop offset="1" stop-color="#ffa101" stop-opacity="0.5" />
    </linearGradient>
  </defs>
</svg>
