<svg width="214" height="178" viewBox="0 0 214 178" fill="none" xmlns="http://www.w3.org/2000/svg">
<g id="logo">
<g id="text">
<path d="M5.07255 164.7V173.415H17.8281V176.869H1.42188V149.392H17.6324V152.847H5.07255V161.286H16.6511V164.7H5.07255Z" fill="#333753"/>
<path fill-rule="evenodd" clip-rule="evenodd" d="M29.5 149.392H39.4693C42.0204 149.392 44.1013 150.257 45.7893 151.943C47.4774 153.633 48.3404 155.712 48.3404 158.224C48.3404 160.697 47.4774 162.816 45.7893 164.504C44.1013 166.192 42.0204 167.056 39.4693 167.056H33.1507V176.869H29.5V149.392ZM33.1507 163.641H39.4693C41.0011 163.641 42.2569 163.13 43.2382 162.11C44.2195 161.051 44.7306 159.756 44.7306 158.224C44.7306 155.084 42.4921 152.808 39.4693 152.808H33.1507V163.641Z" fill="#333753"/>
<path d="M59.3231 174.334V151.757H54.9727V149.183H67.3762V151.757H62.9737V174.334H67.3762V176.908H54.9727V174.334H59.3231ZM89.0437 177.379C84.882 177.379 81.4284 176.005 78.7196 173.257C76.0122 170.51 74.6776 167.134 74.6776 163.13C74.6776 159.126 76.0122 155.751 78.7196 153.003C81.4284 150.256 84.882 148.882 89.0437 148.882C94.0671 148.882 98.5428 151.473 100.898 155.555L97.7178 157.4C96.1479 154.377 92.8112 152.414 89.0437 152.414C85.8647 152.414 83.2728 153.435 81.2721 155.477C79.2701 157.518 78.2874 160.069 78.2874 163.13C78.2874 166.153 79.2701 168.704 81.2721 170.745C83.2742 172.787 85.8647 173.807 89.0437 173.807C92.8112 173.807 96.1479 171.845 97.7178 168.862L100.897 170.666C99.7592 172.708 98.1106 174.357 95.9917 175.573C93.8714 176.789 91.5568 177.379 89.0437 177.379Z" fill="#333753"/>
<path d="M131.026 176.869H126.788L118.898 149.392H122.745L129.024 172.001L135.697 149.392H139.386L146.06 172.001L152.34 149.392H156.187L148.298 176.869H144.059L137.542 154.927L131.026 176.869ZM169.455 164.7V173.415H182.211V176.869H165.804V149.392H182.014V152.847H169.455V161.286H181.033V164.7H169.455ZM209.188 162.621C211.7 163.837 213.309 166.153 213.309 169.097C213.309 171.295 212.525 173.139 210.993 174.631C209.463 176.122 207.579 176.869 205.342 176.869H193.487V149.392H204.477C206.637 149.392 208.442 150.099 209.934 151.552C211.425 153.003 212.171 154.77 212.171 156.889C212.171 159.323 211.19 161.248 209.188 162.621ZM204.477 152.808H197.138V161.207H204.477C206.793 161.207 208.56 159.363 208.56 157.007C208.56 155.868 208.167 154.887 207.344 154.063C206.558 153.238 205.616 152.808 204.477 152.808ZM197.138 173.453H205.342C207.814 173.453 209.698 171.49 209.698 168.979C209.698 167.762 209.267 166.702 208.403 165.839C207.579 164.975 206.558 164.544 205.342 164.544H197.138V173.453Z" fill="#333753"/>
</g>
<g id="icon">
<g id="Ellipse 336" filter="url(#filter0_d_0_1)">
<circle cx="108" cy="67" r="60" fill="white"/>
<circle cx="108" cy="67" r="60.5263" stroke="black" stroke-opacity="0.03" stroke-width="1.05263"/>
</g>
<path id="Vector" d="M109.891 65.1297C107.829 66.2692 105.724 67.332 103.583 68.316C94.1971 72.6316 80.7851 77.0005 64.7129 77.1798L62.8618 77.2006L62.5269 75.3807C62.0103 72.6253 61.7469 69.8285 61.74 67.0252C61.74 41.5156 82.4894 20.7647 107.999 20.7647C114.812 20.7576 121.542 22.2635 127.702 25.1737L133.846 22.0422C125.989 17.5028 117.073 15.1184 107.999 15.1302C79.4142 15.1302 56.1292 38.4153 56.1292 67C56.1292 78.4113 59.8401 88.978 66.1178 97.5543C76.8652 95.724 83.6083 91.4188 83.6083 91.4188C83.6083 91.4188 79.3031 98.153 77.4728 108.903C86.3285 115.389 97.0223 118.881 107.999 118.87C136.584 118.87 159.869 95.5847 159.869 67C159.88 57.9381 157.502 49.0334 152.975 41.1836L149.846 47.3161C152.759 53.4779 154.266 60.2098 154.258 67.0252C154.258 92.5347 133.509 113.283 107.999 113.283C105.121 113.283 102.361 112.992 99.6479 112.497L97.8236 112.164L97.8443 110.31C98.0222 94.2242 102.393 80.8137 106.707 71.4312C107.69 69.2916 108.752 67.1907 109.891 65.1297Z" fill="url(#paint0_linear_0_1)"/>
<path id="Vector_2" d="M135.025 55.6645L123.124 52.1907L119.649 40.2651L159.129 16.162L135.025 55.6645Z" fill="#333753"/>
</g>
</g>
<defs>
<filter id="filter0_d_0_1" x="40.6316" y="0.684207" width="134.737" height="134.737" filterUnits="userSpaceOnUse" color-interpolation-filters="sRGB">
<feFlood flood-opacity="0" result="BackgroundImageFix"/>
<feColorMatrix in="SourceAlpha" type="matrix" values="0 0 0 0 0 0 0 0 0 0 0 0 0 0 0 0 0 0 127 0" result="hardAlpha"/>
<feOffset dy="1.05263"/>
<feGaussianBlur stdDeviation="3.15789"/>
<feColorMatrix type="matrix" values="0 0 0 0 0 0 0 0 0 0 0 0 0 0 0 0 0 0 0.05 0"/>
<feBlend mode="normal" in2="BackgroundImageFix" result="effect1_dropShadow_0_1"/>
<feBlend mode="normal" in="SourceGraphic" in2="effect1_dropShadow_0_1" result="shape"/>
</filter>
<linearGradient id="paint0_linear_0_1" x1="129.482" y1="45.517" x2="86.636" y2="88.3867" gradientUnits="userSpaceOnUse">
<stop stop-color="#4F75FF"/>
<stop offset="1" stop-color="#30AFFF"/>
</linearGradient>
</defs>
</svg>
